<?xml version="1.0" encoding="utf-8"?>
<!-- Generator: Adobe Illustrator 25.4.1, SVG Export Plug-In . SVG Version: 6.00 Build 0)  -->
<svg version="1.1" id="Layer_1" xmlns="http://www.w3.org/2000/svg" xmlns:xlink="http://www.w3.org/1999/xlink" x="0px" y="0px"
	 viewBox="0 0 187 187" style="enable-background:new 0 0 187 187;" xml:space="preserve">
<g id="brand-lock-up">
	<g id="brand-mark">
		<path d="M64.7,168.8c0-0.9,2.3-3.2,2.9-3.2c0.3,0,2.6,2.3,2.6,3.2c0,0.3-2.3,2.9-2.6,2.9C66.9,171.7,64.7,169.1,64.7,168.8
			 M109.3,168.8c0-0.9,2.3-3.2,2.9-3.2c0.3,0,2.6,2.3,2.6,3.2c0,0.3-2.3,2.9-2.6,2.9C111.6,171.7,109.3,169.1,109.3,168.8
			L109.3,168.8z M86.8,168.8c0-0.9,2.3-3.2,2.9-3.2c0.3,0,2.6,2.3,2.6,3.2c0,0.3-2.3,2.9-2.6,2.9C89.2,171.7,86.8,169.1,86.8,168.8z
			 M61.8,173.4H73c0.9,0,1.4-0.6,1.4-1.4v-6.4c0-0.9-0.6-1.4-1.4-1.4c-2.3,0-7.8,0.3-11.3,0.6c-0.6,0-1.2,0.3-1.2,1.2v6.4
			C60.5,173.1,61.2,173.4,61.8,173.4z M54.3,169.4c0-0.6,1.7-2.3,2-2.3s2,1.7,2,2.3c0,0.3-1.7,2.3-2,2.3S54.3,169.7,54.3,169.4z
			 M76.4,168.8c0-0.6,1.7-2.3,2-2.3s2,1.7,2,2.3c0,0.3-1.7,2.3-2,2.3C78.2,171.1,76.4,169.1,76.4,168.8z M95.1,173.7
			c0.9,0,1.4-0.6,1.4-1.4v-6.9c0-0.9-0.6-1.4-1.4-1.4h-11c-0.9,0-1.4,0.6-1.4,1.4v6.9c0,0.9,0.6,1.4,1.4,1.4H95.1L95.1,173.7z
			 M117.7,173.4c0.6,0,1.2-0.3,1.2-1.2v-6.4c0-0.9-0.6-1.2-1.2-1.2c-3.5-0.3-9-0.6-11.3-0.6c-0.9,0-1.4,0.6-1.4,1.4v6.4
			c0,0.9,0.6,1.4,1.4,1.4h11.3V173.4z M125.2,169.4c0,0.3-1.7,2.3-2,2.3c-0.3,0-2-2-2-2.3c0-0.6,1.7-2.3,2-2.3
			C123.5,167.1,125.2,168.8,125.2,169.4z M102.9,168.8c0,0.3-1.7,2.3-2,2.3s-2-2-2-2.3c0-0.6,1.7-2.3,2-2.3S102.9,168.2,102.9,168.8
			z M73.5,35h0.3c1.4,5.5,7.8,6.1,9.3,12.3l-0.3,0.3c-3.2-4.6-7.5-5.2-9.3-7.5C72.7,39.1,72.7,37.6,73.5,35z M84.2,108.9
			c0,9-7.5,13-15.2,13c10.1-11,2.3-26.8,12-37.2C80.2,93.8,84.2,102.5,84.2,108.9z M132,133.3c10.7,0,16.2-5.5,16.2-13.9
			c0-2.9-0.9-4.9-0.9-4.9c-2.9,2.3-6.4,2.9-8.4,2.9c-4.3,0-10.1-2.6-10.1-9.4c0-9,9.5-13.6,9.5-23.6c0-2.9-1.2-4-1.2-4
			c4.3-5.8,5.8-11.3,5.8-15.5c0-8.1-4.3-13.3-4.3-13.3l4.6,2.3c-2-7.8-6.4-13-6.4-13s2.3,1.2,3.5,0.6c-2.3-1.2-5.8-5.5-5.8-13.3
			s-1.7-12-16.8-14.6c-1.7-3.5-5.8-7.2-7.8-8.4c-3.5,1.7-8.7,3.8-10.4,5.2c0,0-4.3,0.3-6.1,0.3c-2.6,0-4.6-0.9-5.8-0.9
			c-3.5,0-5.8,3.5-5.8,3.5s-7.5,0-13,1.2c-2.9,0.6-4.6,2.9-6.7,7.8L48,30.1c-2.6,1.4-4.3,2.3-4.3,4.6c0,1.2,0.9,3.2,2.6,5.8
			c1.4,8.7,2.9,10.1,4.9,10.1c0.6,0,1.7-0.3,1.7-0.3c0.6,0.6,2,2.9,2.3,3.8c-2.3,1.2-5.2-1.4-8.7-1.4c-2,0-5.2,1.2-5.2,4.6
			c0,1.2,0.6,1.4,1.2,1.4c0.9,0,1.7-0.3,3.8-0.3c2.6,0,4.6,2.3,8.7,2.3c1.4,0,2.3-0.3,2.9,0c-2,1.4-3.2,2.3-2.6,4.3
			c0.9,3.8,4.3,8.1,6.1,8.1c1.4,0,4-0.9,4-0.9l-1.7,1.4c-11.6,9.8-9,20.7-9,31.7c0,8.4-2.3,13.6-9,13.6c-4.3,0-10.4-2.6-14.9-8.4
			c-0.6,1.7-0.9,4.3-0.9,6.7c0,10.1,9.3,16.8,18.4,16.8c8.1,0,13.9-2.3,19.7-6.9c16.5-0.3,21.6-11.3,21.6-11.3
			c7.8,11.3,22.3,10.4,24.5,10.4C119.1,131.3,126.5,133.3,132,133.3L132,133.3z M133.3,72.2c0,12-15.5,13.6-15.5,25.3
			c0,4.6,1.4,7.8,0.6,10.7c0,0,3.2-3.5,3.5-6.1c0,9,4.6,19.4,16.5,19.4c1.7,0,4.3-0.3,6.7-1.7c0,0-0.6,8.4-10.1,8.4
			c-12,0-23-10.1-23-28.8c0-3.5,0.6-7.5,2.6-10.4c0,0-5.8,3.2-6.4,13.3c0,0-2.3-3.5-2.3-7.8C105.5,79.9,123.2,85.1,133.3,72.2
			L133.3,72.2z M119.7,17.8c10.7,2.3,9.3,9.3,11.3,14.2c-4.6-5.8-10.7-9.4-10.7-9.4C120.9,19.7,119.7,17.8,119.7,17.8z M55.1,46.6
			c0.6-0.3,2.6-0.6,2.6-0.6c0.6,1.2,0.6,3.2,0.3,4.9C55.4,50.8,54.6,48.2,55.1,46.6z M61.2,55.3c-1.2,1.7-2,4-5.5,4
			s-6.4-2.6-8.7-2.6c-1.2,0-1.7,0.3-2.3,0.3s-0.9-0.3-0.9-0.6c0-0.9,1.2-1.7,2.9-1.7c1.7,0,3.2,0.9,5.8,1.4c3.8,1.2,6.1-2,7.5-3.2
			c1.7-1.4,3.2-1.7,4.6-1.7c2.9,0,4.9,1.4,4.9,1.4c-1.4,0-4.6,1.4-6.9,2.9C61.8,55.3,61.5,55,61.2,55.3L61.2,55.3z M64.4,58.9
			c-1.2,1.2-2.3,1.2-2.9,1.2c-0.6-1.4,0-3.5,0-3.5C62.7,56.6,64.4,57.5,64.4,58.9z M45.9,122.5c13.6,0,13.3-15.5,13.3-20.7
			c0-23.3,6.9-29.1,23-36.6c12-5.8,23-8.1,23-19.7c0-4-1.2-8.4-5.8-8.4c0,0,1.7,1.7,1.7,4.6c0,1.2-0.3,2.3-0.9,3.8
			c0-1.2-0.3-2.6-1.2-3.8c-1.4,2.3-1.2,5.8-2,7.2c0,0-0.6,1.4-4.6,3.5c0,0-0.6,0.6,1.4,0.6c0,0,4.9,0,6.7-2c-1.4,4-3.2,5.5-5.8,5.5
			c-1.4,0-3.8-0.3-5.8-0.3c-3.5,0-11.6,1.7-14.6,7.2c-2.3,3.8-9,7.2-11.3,7.2c-2,0-4.9-4.6-4.9-6.7c0-2.3,4-0.9,7.2-4
			c5.2-5.2,7.2-6.4,12.7-6.4c0,0,3.2,0,0.3-2.9l-9-8.4c-1.2-1.2-2-1.7-3.2-1.7c-0.6,0-1.7,0.3-4.3,2.6c-5.2,0.6-7.2,1.4-8.7,2.3
			c-0.9,0.6-1.4,1.2-2,1.2c-0.9,0-2-4.6-2-5.5c0-2.3,2.6-3.8,2.6-5.2c0-0.9-0.9-1.2-0.9-1.2L47,36.4c0,0-2-2.3,0.3-3.5
			c0,0,5.8-3.2,16.8-8.4c0.6,3.2,1.4,3.8,4,3.5l-1.2,0.3l-0.6,0.9c0.9,0.3,2.6,0,4.3-0.6c1.4-0.6,3.2-0.6,3.5-0.9
			c0.3-0.3,1.2-1.2,1.2-1.4c-0.6,0-2.3,0.3-3.5,0.6c1.7-1.2,2.6-2,2.6-2.6c0-0.3-0.3-0.6-0.3-0.6c-0.9,0-1.4,0.6-2.3,0.3
			c-0.6-0.3-1.2-0.9-1.2-1.7c0-0.6,0.6-1.2,2.6-1.2h1.4c0-1.2-2.9-1.7-4-1.7c-1.4,0-3.5,0.6-5.2,1.4c0,0,0.3-2.3,2.9-3.5
			c1.4-0.6,9-1.4,16.2-1.4c10.4,0,18.1,9,19.7,9c0.6,0,1.2-0.6,0.3-1.2c-3.8-2.6-6.1-4.6-6.1-7.2c0-0.9,0-6.4,11.9-8.4
			c5.2,4.3,6.9,7.5,6.9,10.4c0,4.9-5.5,5.5-6.1,7.5c13.6,0.9,23.6,18.7,23.6,27.7c0,16.2-15.2,22.7-24.8,24.8
			c13.9-10.4,19.1-20.7,19.1-27.9c0-11.9-10.7-18.7-13.3-20.1c6.1,6.7,7.5,13.6,7.5,18.7c0,10.1-6.4,14.9-6.4,14.9
			c1.2-2.3,1.4-4.3,1.4-6.1c0-1.4-0.3-2.6-0.3-2.6c-5.5,13-18.1,21.9-19.1,32.9c-0.9-2.6-1.2-5.2-1.2-7.5c0-9.3,5.8-14.9,5.8-14.9
			c-11.3,7.8-13.9,16.8-13.9,23.6s2.9,12,2.9,12c-0.6-2.6-0.3-6.9,0.3-10.4c1.2,9.8,6.1,21.9,19.7,29.7c-23.6,0-33.4-28.2-23.6-46.2
			C72,79.2,70,96.3,69.7,106c-1.2-5.2-1.4-9.3-1.4-12.3c0-17.5,14.6-22.3,25.6-27.1c16.2-7.2,22.7-13,22.7-23.3
			c0-11-13-17.8-22.6-15.9l3.5,3.5c0.6,0.6,1.4,1.2,1.4,1.2c10.1,5.2,11.6,11,11.6,14.5c0,9.3-10.4,14.2-17.8,17.4
			C68.5,74.3,64.2,78.9,64.2,94c0,11,3.2,28.2-8.4,29.7c0.9,1.4,4.9,2,4.9,2c-3.5,2.9-7.2,3.8-11.6,3.8c-4,0-12-1.2-14.5-9.8
			C37.8,120.6,41,122.5,45.9,122.5L45.9,122.5z M109,22.9l0.9,0.6c0,0,5.2-2.3,5.2-6.1c0,0,0-2-1.2-3.2c-0.6,0-0.6,1.2-0.6,1.7
			c0,1.2-0.9,2-2.3,2c-1.2,0-3.2-1.2-3.2-3.2s0.9-2.9,0.9-3.5c0,0,0-0.3-0.3-0.3c-4.6,1.7-4.9,3.8-4.9,5.2
			C103.5,18.4,104.4,20.4,109,22.9L109,22.9z M53.4,34.7c0.3,0.6,1.2,1.2,1.7,1.2c1.2-1.2,2.3-2.6,2.3-4
			C56,32.1,53.4,32.7,53.4,34.7z M147.1,130.7l-0.9-0.3c-1.2,1.7-5.2,5.5-11.3,5.5l-0.3,0.6c2.6,2.6,2,8.4-1.2,8.4
			c-2,0-2.9-1.7-3.2-3.2l-0.6-0.3c-0.9,0.6-3.2,2.3-3.8,2.9c0,1.7,0.3,4,0.6,5.5h0.6c0.6-1.2,1.7-1.4,2.3-1.4c1.4,0,2.6,1.2,2.6,2.9
			c0,2.9-2,5.5-6.1,5.5c-4.3,0-8.1-2-8.1-6.7c0-2.3,1.2-4.9,4.3-6.4v-0.6c-2.3-1.7-4.3-4.6-4.9-6.1h-0.6c-0.9,1.2-3.8,3.8-6.4,4.3
			v0.6c2.3,2.3,2.6,4.6,2.6,6.1c0,3.8-3.2,6.1-9.8,6.1c-4.9,0-9.8-1.4-9.8-6.4c0-2.6,1.7-4,3.8-4c1.4,0,3.2,0.6,4.3,2.3h0.6
			c1.2-1.4,1.7-2.3,3.8-4v-0.6c-0.9-0.6-2.3-2.3-3.8-4.3h-0.6c-2,2.3-3.5,2.6-5.2,2.6c-1.2,0-2.9-0.6-2.9-2.6c0-2.6,3.2-3.8,5.8-4.6
			v-0.6c-4.3-1.7-8.4-6.4-9.3-9.3h-0.6c-0.9,2.9-4.9,7.5-9.3,9.3v0.6c2.6,0.9,5.8,2,5.8,4.6c0,2-1.7,2.6-2.9,2.6
			c-1.7,0-3.2-0.3-5.2-2.6h-0.6c-1.4,2-2.9,3.8-3.8,4.3v0.6c2,1.7,2.6,2.6,3.8,4h0.6c1.2-1.7,2.9-2.3,4.3-2.3c2,0,3.8,1.4,3.8,4
			c0,4.9-4.9,6.4-9.8,6.4c-6.7,0-9.8-2.3-9.8-6.1c0-1.4,0.3-3.8,2.6-6.1v-0.5c-2.6-0.6-5.5-3.2-6.4-4.3h-0.6
			c-0.6,1.4-2.6,4.3-4.9,6.1v0.6c3.2,1.4,4.3,4,4.3,6.4c0,4.6-3.8,6.7-8.1,6.7c-4,0-6.1-2.6-6.1-5.5c0-1.7,1.2-2.9,2.6-2.9
			c0.6,0,1.7,0.3,2.3,1.4h0.6c0.3-1.4,0.6-3.8,0.6-5.5c-0.6-0.6-2.9-2.3-3.8-2.9l-0.6,0.3c-0.3,1.4-1.2,3.2-3.2,3.2
			c-3.2,0-3.8-5.8-1.2-8.4l-0.3-0.6c-6.1,0-10.1-3.8-11.3-5.5l-0.2,0.2l12,27.7c0,0-2.6,1.2-2,3.2c1.2,4,4.6,9.3,4.6,15.5
			c0,2.6-0.3,2.9-0.3,4c0,1.2,0.9,1.7,2,1.7h81.8c1.2,0,2-0.6,2-1.7c0-1.2-0.3-1.4-0.3-4c0-6.4,3.5-11.6,4.6-15.5c0.6-2-2-3.2-2-3.2
			L147.1,130.7L147.1,130.7z M89.7,176.3c-22.6,0-37.5-0.3-37.5-0.3l-3.2-12c0,0,20.4-2.9,40.7-2.9c20.1,0,40.7,2.9,40.7,2.9
			l-3.2,12C127.2,176,112.2,176.3,89.7,176.3L89.7,176.3z"/>
	</g>
</g>
</svg>
